# xmcd
#
# Track frame offsets: 
#        150
#        13834
#        33471
#        45551
#        60578
#        76261
#        95580
#        114583
#        123757
#        143367
#
# Disc length: 2094 seconds
#
# Revision: 0
# Processed by: cddbd v1.5.2PL0 Copyright (c) Steve Scherf et al.
# Submitted via: ExactAudioCopy v0.99pb4
#
DISCID=76082c0a
DTITLE=Various Artist - Nova 24h - CD 19 - 18h, ça m'épate
DYEAR=2009
DGENRE=Blues
TTITLE0=Irène de Trébert - Au Quatrième Top
TTITLE1=Terry Hall and Mushtaq - A Tale Of Woe
TTITLE2=Bama and The Family - Feeling Good
TTITLE3=100 Proof Aged In Soul - Nothing Sweeter Than Love
TTITLE4=Java - J'me Marre
TTITLE5=Johnny Osbourne - Buddy Bye
TTITLE6=DJ Jazzy Jeff feat. C.L. Smooth - All I Know
TTITLE7=Jackson Do Pandeiro - Sebastiana
TTITLE8=Leon Thomas - Let's Go Down To Lucy's
TTITLE9=Ian Dury - Sex and Drugs and Rock and Roll
EXTD=
EXTT0=
EXTT1=
EXTT2=
EXTT3=
EXTT4=
EXTT5=
EXTT6=
EXTT7=
EXTT8=
EXTT9=
PLAYORDER=
